<?xml version="1.0" encoding="utf-8"?>
<!-- Generator: Adobe Illustrator 15.1.0, SVG Export Plug-In . SVG Version: 6.00 Build 0)  -->
<!DOCTYPE svg PUBLIC "-//W3C//DTD SVG 1.1//EN" "http://www.w3.org/Graphics/SVG/1.1/DTD/svg11.dtd">
<svg version="1.1" id="Layer_1" xmlns="http://www.w3.org/2000/svg" xmlns:xlink="http://www.w3.org/1999/xlink" x="0px" y="0px"
	 width="210px" height="210px" viewBox="0 0 210 210" enable-background="new 0 0 210 210" xml:space="preserve">
<rect fill="#FBAD18" width="210" height="210"/>
<path fill="#FFFFFF" d="M115.067,93.302c4.55,1.218,9.606-2.893,11.295-9.188c1.685-6.295-0.636-12.385-5.181-13.603
	c-4.553-1.219-9.607,2.893-11.291,9.192C108.201,85.993,110.52,92.084,115.067,93.302"/>
<path fill="#FFFFFF" d="M96.83,93.312c4.554-1.218,6.865-7.309,5.182-13.609c-1.694-6.29-6.747-10.406-11.291-9.187
	c-4.554,1.217-6.865,7.308-5.182,13.603C87.229,90.414,92.275,94.529,96.83,93.312"/>
<path fill="#FFFFFF" d="M83.921,95.419c-2.884-5-8.147-7.36-11.763-5.276c-3.606,2.084-4.192,7.822-1.313,12.823
	c2.893,5.001,8.15,7.36,11.762,5.276C86.225,106.158,86.805,100.42,83.921,95.419"/>
<path fill="#FFFFFF" d="M139.742,90.128c-3.605-2.089-8.869,0.276-11.761,5.277c-2.884,4.996-2.304,10.744,1.317,12.824
	c3.606,2.084,8.875-0.281,11.763-5.277C143.939,97.955,143.354,92.212,139.742,90.128"/>
<path fill="#FFFFFF" d="M120.403,111.487c-4.917-4.284-6.597-12.501-14.451-12.501c-8.24,0-9.454,8.354-14.38,12.953
	c-3.94,3.676-16.19,8.566-12.486,14.822c7.085,11.959,12.033,1.406,26.866,1.406c14.832,0,20.144,10.431,26.856-1.406
	C136.784,119.764,124.764,115.291,120.403,111.487"/>
</svg>
