<?xml version="1.0" encoding="utf-8"?>
<!-- Generator: Adobe Illustrator 15.1.0, SVG Export Plug-In . SVG Version: 6.00 Build 0)  -->
<!DOCTYPE svg PUBLIC "-//W3C//DTD SVG 1.1//EN" "http://www.w3.org/Graphics/SVG/1.1/DTD/svg11.dtd">
<svg version="1.1" id="Layer_1" xmlns="http://www.w3.org/2000/svg" xmlns:xlink="http://www.w3.org/1999/xlink" x="0px" y="0px"
	 width="210px" height="210px" viewBox="0 0 210 210" enable-background="new 0 0 210 210" xml:space="preserve">
<rect fill="#C4C4C3" width="210" height="210"/>
<path fill="#FFFFFF" d="M129.849,92.225l-10.3-11.8c-5.7-6.4-11.1-12.6-12.1-13.6c-1.802-1.9-2-1.9-7.9,4.5c-3.3,3.5-6,6.601-6,6.9
	c6-6.9-2.9,3.6-6.3,7.3l-6.2,6.8l-4.9-0.3l-5-0.3l14.801-16.8l14.8-16.7h4.8h4.801l13.899,15.7c7.601,8.7,14.2,16.399,14.601,17"/>
<path fill="#FFFFFF" d="M111.056,75.548c3.096,3.389,8.519,9.391,12.004,13.36l6.485,7.26v14.328v14.328l-7.938-0.291l-8.035-0.291
	l-0.483-10.843c-0.58-12.198-1.452-13.747-7.743-13.747c-6.294,0-7.166,1.549-7.746,13.747l-0.485,10.843l-7.938,0.291l-8.036,0.291
	v-14.425V95.974l11.908-13.166c6.486-7.261,11.907-13.167,12.102-13.167C105.245,69.545,107.956,72.256,111.056,75.548z"/>
<path fill="#FFFFFF" stroke="#FFFFFF" stroke-miterlimit="10" d="M62.093,156.934c0,2.623-2.126,4.75-4.75,4.75l0,0
	c-2.624,0-4.75-2.127-4.75-4.75v-22c0-2.623,2.126-4.75,4.75-4.75l0,0c2.624,0,4.75,2.127,4.75,4.75V156.934z"/>
<path fill="#FFFFFF" stroke="#FFFFFF" stroke-miterlimit="10" d="M78.093,156.934c0,2.623-2.126,4.75-4.75,4.75l0,0
	c-2.624,0-4.75-2.127-4.75-4.75v-22c0-2.623,2.126-4.75,4.75-4.75l0,0c2.624,0,4.75,2.127,4.75,4.75V156.934z"/>
<path fill="#FFFFFF" stroke="#FFFFFF" stroke-miterlimit="10" d="M94.093,156.934c0,2.623-2.126,4.75-4.75,4.75l0,0
	c-2.624,0-4.75-2.127-4.75-4.75v-22c0-2.623,2.126-4.75,4.75-4.75l0,0c2.624,0,4.75,2.127,4.75,4.75V156.934z"/>
<path fill="#FFFFFF" stroke="#FFFFFF" stroke-miterlimit="10" d="M110.093,156.934c0,2.623-2.127,4.75-4.75,4.75l0,0
	c-2.624,0-4.75-2.127-4.75-4.75v-22c0-2.623,2.126-4.75,4.75-4.75l0,0c2.623,0,4.75,2.127,4.75,4.75V156.934z"/>
<path fill="#FFFFFF" stroke="#FFFFFF" stroke-miterlimit="10" d="M126.093,156.934c0,2.623-2.127,4.75-4.75,4.75l0,0
	c-2.623,0-4.75-2.127-4.75-4.75v-22c0-2.623,2.127-4.75,4.75-4.75l0,0c2.623,0,4.75,2.127,4.75,4.75V156.934z"/>
<path fill="#FFFFFF" stroke="#FFFFFF" stroke-miterlimit="10" d="M142.093,156.934c0,2.623-2.127,4.75-4.75,4.75l0,0
	c-2.623,0-4.75-2.127-4.75-4.75v-22c0-2.623,2.127-4.75,4.75-4.75l0,0c2.623,0,4.75,2.127,4.75,4.75V156.934z"/>
<path fill="#FFFFFF" stroke="#FFFFFF" stroke-miterlimit="10" d="M158.093,156.934c0,2.623-2.127,4.75-4.75,4.75l0,0
	c-2.623,0-4.75-2.127-4.75-4.75v-22c0-2.623,2.127-4.75,4.75-4.75l0,0c2.623,0,4.75,2.127,4.75,4.75V156.934z"/>
<rect x="57.343" y="140.684" fill="#FFFFFF" width="96" height="2"/>
<rect x="57.343" y="150.684" fill="#FFFFFF" width="96" height="2"/>
</svg>
