<?xml version="1.0" encoding="utf-8"?>
<!-- Generator: Adobe Illustrator 15.1.0, SVG Export Plug-In . SVG Version: 6.00 Build 0)  -->
<!DOCTYPE svg PUBLIC "-//W3C//DTD SVG 1.1//EN" "http://www.w3.org/Graphics/SVG/1.1/DTD/svg11.dtd">
<svg version="1.1" id="Layer_1" xmlns="http://www.w3.org/2000/svg" xmlns:xlink="http://www.w3.org/1999/xlink" x="0px" y="0px"
	 width="210px" height="210px" viewBox="0 0 210 210" enable-background="new 0 0 210 210" xml:space="preserve">
<rect fill="#488CCA" width="210" height="210"/>
<rect x="108.25" y="50.25" fill="#FFFFFF" stroke="#FFFFFF" stroke-miterlimit="10" width="40.5" height="109.5"/>
<rect x="115.32" y="81.637" fill="#488CCA" stroke="#488CCA" stroke-miterlimit="10" width="8.859" height="8.227"/>
<rect x="133.32" y="81.637" fill="#488CCA" stroke="#488CCA" stroke-miterlimit="10" width="8.859" height="8.227"/>
<rect x="115.32" y="94.637" fill="#488CCA" stroke="#488CCA" stroke-miterlimit="10" width="8.859" height="8.227"/>
<rect x="133.32" y="94.637" fill="#488CCA" stroke="#488CCA" stroke-miterlimit="10" width="8.859" height="8.227"/>
<rect x="115.32" y="107.637" fill="#488CCA" stroke="#488CCA" stroke-miterlimit="10" width="8.859" height="8.227"/>
<rect x="133.32" y="107.637" fill="#488CCA" stroke="#488CCA" stroke-miterlimit="10" width="8.859" height="8.227"/>
<rect x="115.32" y="120.637" fill="#488CCA" stroke="#488CCA" stroke-miterlimit="10" width="8.859" height="8.227"/>
<rect x="133.32" y="120.637" fill="#488CCA" stroke="#488CCA" stroke-miterlimit="10" width="8.859" height="8.227"/>
<rect x="115.32" y="133.637" fill="#488CCA" stroke="#488CCA" stroke-miterlimit="10" width="8.859" height="8.227"/>
<rect x="133.32" y="133.637" fill="#488CCA" stroke="#488CCA" stroke-miterlimit="10" width="8.859" height="8.227"/>
<rect x="115.32" y="146.637" fill="#488CCA" stroke="#488CCA" stroke-miterlimit="10" width="8.859" height="8.227"/>
<rect x="133.32" y="146.637" fill="#488CCA" stroke="#488CCA" stroke-miterlimit="10" width="8.859" height="8.227"/>
<rect x="115.32" y="55.637" fill="#488CCA" stroke="#488CCA" stroke-miterlimit="10" width="8.859" height="8.227"/>
<rect x="133.32" y="55.637" fill="#488CCA" stroke="#488CCA" stroke-miterlimit="10" width="8.859" height="8.227"/>
<rect x="115.32" y="68.637" fill="#488CCA" stroke="#488CCA" stroke-miterlimit="10" width="8.859" height="8.227"/>
<rect x="133.32" y="68.637" fill="#488CCA" stroke="#488CCA" stroke-miterlimit="10" width="8.859" height="8.227"/>
<rect x="61.25" y="50.25" fill="#FFFFFF" stroke="#FFFFFF" stroke-miterlimit="10" width="40.5" height="109.5"/>
<rect x="68.32" y="81.637" fill="#488CCA" stroke="#488CCA" stroke-miterlimit="10" width="8.859" height="8.227"/>
<rect x="86.32" y="81.637" fill="#488CCA" stroke="#488CCA" stroke-miterlimit="10" width="8.859" height="8.227"/>
<rect x="68.32" y="94.637" fill="#488CCA" stroke="#488CCA" stroke-miterlimit="10" width="8.859" height="8.227"/>
<rect x="86.32" y="94.637" fill="#488CCA" stroke="#488CCA" stroke-miterlimit="10" width="8.859" height="8.227"/>
<rect x="68.32" y="107.637" fill="#488CCA" stroke="#488CCA" stroke-miterlimit="10" width="8.859" height="8.227"/>
<rect x="86.32" y="107.637" fill="#488CCA" stroke="#488CCA" stroke-miterlimit="10" width="8.859" height="8.227"/>
<rect x="68.32" y="120.637" fill="#488CCA" stroke="#488CCA" stroke-miterlimit="10" width="8.859" height="8.227"/>
<rect x="86.32" y="120.637" fill="#488CCA" stroke="#488CCA" stroke-miterlimit="10" width="8.859" height="8.227"/>
<rect x="68.32" y="133.637" fill="#488CCA" stroke="#488CCA" stroke-miterlimit="10" width="8.859" height="8.227"/>
<rect x="86.32" y="133.637" fill="#488CCA" stroke="#488CCA" stroke-miterlimit="10" width="8.859" height="8.227"/>
<rect x="68.32" y="146.637" fill="#488CCA" stroke="#488CCA" stroke-miterlimit="10" width="8.859" height="8.227"/>
<rect x="86.32" y="146.637" fill="#488CCA" stroke="#488CCA" stroke-miterlimit="10" width="8.859" height="8.227"/>
<rect x="68.32" y="55.637" fill="#488CCA" stroke="#488CCA" stroke-miterlimit="10" width="8.859" height="8.227"/>
<rect x="86.32" y="55.637" fill="#488CCA" stroke="#488CCA" stroke-miterlimit="10" width="8.859" height="8.227"/>
<rect x="68.32" y="68.637" fill="#488CCA" stroke="#488CCA" stroke-miterlimit="10" width="8.859" height="8.227"/>
<rect x="86.32" y="68.637" fill="#488CCA" stroke="#488CCA" stroke-miterlimit="10" width="8.859" height="8.227"/>
</svg>
