<?xml version="1.0" encoding="utf-8"?>
<!-- Generator: Adobe Illustrator 15.1.0, SVG Export Plug-In . SVG Version: 6.00 Build 0)  -->
<!DOCTYPE svg PUBLIC "-//W3C//DTD SVG 1.1//EN" "http://www.w3.org/Graphics/SVG/1.1/DTD/svg11.dtd">
<svg version="1.1" id="Layer_1" xmlns="http://www.w3.org/2000/svg" xmlns:xlink="http://www.w3.org/1999/xlink" x="0px" y="0px"
	 width="210px" height="210px" viewBox="0 0 210 210" enable-background="new 0 0 210 210" xml:space="preserve">
<rect fill="#488CCA" width="210" height="210"/>
<path fill="#FFFFFF" d="M116.315,78.265l-4.837-5.541c-2.677-3.006-5.212-5.917-5.683-6.386c-0.846-0.893-0.938-0.893-3.709,2.112
	c-1.55,1.644-2.817,3.1-2.817,3.24c2.817-3.24-1.362,1.69-2.958,3.428L93.4,78.312l-2.301-0.142l-2.348-0.141l6.95-7.889
	l6.949-7.842h2.254h2.254l6.528,7.373c3.567,4.084,6.667,7.699,6.855,7.982"/>
<path fill="#FFFFFF" d="M107.72,72.15c1.42,1.555,3.908,4.309,5.507,6.131l2.976,3.33v6.574v6.573l-3.643-0.134l-3.686-0.133
	l-0.223-4.975c-0.266-5.598-0.666-6.308-3.552-6.308c-2.888,0-3.287,0.71-3.554,6.308l-0.223,4.975l-3.642,0.133l-3.687,0.134
	v-6.618v-6.619l5.464-6.04c2.976-3.331,5.463-6.041,5.553-6.041C105.054,69.396,106.297,70.641,107.72,72.15z"/>
<path fill="#FFFFFF" d="M107.72,79.962c1.42,1.555,3.908,4.308,5.507,6.13l2.976,3.33v6.574v6.574l-3.643-0.134l-3.686-0.134
	l-0.223-4.975c-0.266-5.597-0.666-6.307-3.552-6.307c-2.888,0-3.287,0.71-3.554,6.307l-0.223,4.975l-3.642,0.134l-3.687,0.134
	v-6.619v-6.618l5.464-6.04c2.976-3.332,5.463-6.041,5.553-6.041C105.054,77.207,106.297,78.451,107.72,79.962z"/>
<path fill="#FFFFFF" d="M107.72,88.641c1.42,1.555,3.908,4.309,5.507,6.13l2.976,3.331v6.573v6.574l-3.643-0.134l-3.686-0.134
	l-0.223-4.975c-0.266-5.597-0.666-6.308-3.552-6.308c-2.888,0-3.287,0.711-3.554,6.308l-0.223,4.975l-3.642,0.134l-3.687,0.134
	v-6.618v-6.619l5.464-6.04c2.976-3.331,5.463-6.042,5.553-6.042C105.054,85.887,106.297,87.131,107.72,88.641z"/>
<path fill="#FFFFFF" d="M107.72,97.319c1.42,1.555,3.908,4.309,5.507,6.13l2.976,3.33v6.574v6.574l-3.643-0.133l-3.686-0.134
	l-0.223-4.976c-0.266-5.597-0.666-6.307-3.552-6.307c-2.888,0-3.287,0.71-3.554,6.307l-0.223,4.976l-3.642,0.134l-3.687,0.133
	v-6.618v-6.618l5.464-6.041c2.976-3.332,5.463-6.041,5.553-6.041C105.054,94.565,106.297,95.809,107.72,97.319z"/>
<path fill="#FFFFFF" d="M107.72,106.866c1.42,1.555,3.908,4.309,5.507,6.13l2.976,3.33v6.574v6.574l-3.643-0.133l-3.686-0.134
	l-0.223-4.976c-0.266-5.597-0.666-6.308-3.552-6.308c-2.888,0-3.287,0.711-3.554,6.308l-0.223,4.976l-3.642,0.134l-3.687,0.133
	v-6.618v-6.619l5.464-6.04c2.976-3.332,5.463-6.041,5.553-6.041C105.054,104.112,106.297,105.355,107.72,106.866z"/>
<path fill="#FFFFFF" d="M107.72,116.413c1.42,1.555,3.908,4.309,5.507,6.129l2.976,3.331v6.574v6.574l-3.643-0.133l-3.686-0.135
	l-0.223-4.975c-0.266-5.597-0.666-6.308-3.552-6.308c-2.888,0-3.287,0.711-3.554,6.308l-0.223,4.975l-3.642,0.135l-3.687,0.133
	v-6.619v-6.618l5.464-6.04c2.976-3.331,5.463-6.042,5.553-6.042C105.054,113.658,106.297,114.902,107.72,116.413z"/>
<path fill="#FFFFFF" d="M107.72,125.092c1.42,1.555,3.908,4.309,5.507,6.13l2.976,3.33v6.574v6.574l-3.643-0.133l-3.686-0.134
	l-0.223-4.976c-0.266-5.597-0.666-6.308-3.552-6.308c-2.888,0-3.287,0.711-3.554,6.308l-0.223,4.976l-3.642,0.134l-3.687,0.133
	v-6.618v-6.619l5.464-6.04c2.976-3.331,5.463-6.041,5.553-6.041C105.054,122.337,106.297,123.582,107.72,125.092z"/>
<rect x="106.484" y="84.486" fill="#488CCA" width="5.564" height="22.38"/>
<rect x="98.909" y="84.486" fill="#488CCA" width="5.564" height="22.38"/>
<rect x="106.484" y="109.654" fill="#488CCA" width="5.564" height="22.381"/>
<rect x="98.909" y="109.654" fill="#488CCA" width="5.564" height="22.381"/>
<rect x="117.938" y="82.1" fill="#FFFFFF" width="36.611" height="65.601"/>
<rect x="55.45" y="82.1" fill="#FFFFFF" width="36.612" height="65.601"/>
<rect x="59.95" y="85.93" fill="#488CCA" width="13.556" height="11.303"/>
<rect x="59.95" y="107.025" fill="#488CCA" width="13.556" height="11.3"/>
<rect x="75.195" y="85.93" fill="#488CCA" width="13.556" height="11.303"/>
<rect x="75.195" y="107.025" fill="#488CCA" width="13.556" height="11.3"/>
<rect x="59.95" y="127.718" fill="#488CCA" width="13.556" height="11.304"/>
<rect x="75.195" y="127.718" fill="#488CCA" width="13.556" height="11.304"/>
<rect x="121.57" y="85.93" fill="#488CCA" width="13.556" height="11.303"/>
<rect x="121.57" y="107.025" fill="#488CCA" width="13.556" height="11.3"/>
<rect x="136.814" y="85.93" fill="#488CCA" width="13.557" height="11.303"/>
<rect x="136.814" y="107.025" fill="#488CCA" width="13.557" height="11.3"/>
<rect x="121.57" y="127.718" fill="#488CCA" width="13.556" height="11.304"/>
<rect x="136.814" y="127.718" fill="#488CCA" width="13.557" height="11.304"/>
</svg>
